<?xml version="1.0" encoding="UTF-8"?>
<svg version="1.1" xmlns="http://www.w3.org/2000/svg" width="1567" height="455">
<path d="M0 0 C517.11 0 1034.22 0 1567 0 C1567 150.15 1567 300.3 1567 455 C1049.89 455 532.78 455 0 455 C0 304.85 0 154.7 0 0 Z " fill="#FEFEFE" transform="translate(0,0)"/>
<path d="M0 0 C4.68665941 0.81875375 6.84386192 3.32061391 10.1171875 6.62890625 C11.44889207 7.92351321 12.78093446 9.21777274 14.11328125 10.51171875 C14.79503418 11.18364258 15.47678711 11.85556641 16.17919922 12.54785156 C19.45919975 15.75720593 22.82207185 18.87621338 26.1796875 22.00390625 C27.52263339 23.26248969 28.86507898 24.52160717 30.20703125 25.78125 C34.21793589 29.54383745 38.22995005 33.30524013 42.2421875 37.06640625 C46.25442495 40.82757237 50.26643911 44.58897505 54.27734375 48.3515625 C60.75852738 54.43081226 67.24395773 60.5053767 73.7421875 66.56640625 C78.89447222 71.37204579 84.04021974 76.18456106 89.1796875 81.00390625 C89.8406543 81.62362305 90.50162109 82.24333984 91.18261719 82.88183594 C94.58564535 86.07310542 97.98709432 89.26604228 101.38671875 92.4609375 C102.07451416 93.10683838 102.76230957 93.75273926 103.47094727 94.41821289 C104.75194554 95.62122794 106.03244361 96.82477602 107.31225586 98.02905273 C113.2414007 103.59562683 119.24540599 109.06935653 125.2421875 114.56640625 C125.2421875 145.91640625 125.2421875 177.26640625 125.2421875 209.56640625 C43.4021875 209.56640625 -38.4378125 209.56640625 -122.7578125 209.56640625 C-122.7578125 114.56640625 -122.7578125 114.56640625 -114.7578125 106.56640625 C-112.84910111 104.91218971 -110.94009399 103.25828564 -109.0234375 101.61328125 C-106.16402715 99.0299519 -103.46515085 96.30743891 -100.7578125 93.56640625 C-96.92794512 89.68911017 -93.03729933 86.00397005 -88.8828125 82.47265625 C-86.06387318 79.94390186 -83.41842413 77.25994624 -80.7578125 74.56640625 C-76.92793237 70.68912662 -73.03729948 67.00397019 -68.8828125 63.47265625 C-66.06387318 60.94390186 -63.41842413 58.25994624 -60.7578125 55.56640625 C-56.92793237 51.68912662 -53.03729948 48.00397019 -48.8828125 44.47265625 C-46.06387294 41.94390164 -43.41842674 39.25994379 -40.7578125 36.56640625 C-37.53383163 33.3025801 -34.32263403 30.09810484 -30.8203125 27.12890625 C-26.48626984 23.44632721 -22.55245013 19.38740009 -18.55737305 15.34643555 C-14.94864296 11.71233282 -11.26232983 8.23615229 -7.34375 4.93359375 C-5.70412199 3.6059804 -5.70412199 3.6059804 -4.421875 1.88671875 C-2.7578125 0.56640625 -2.7578125 0.56640625 0 0 Z " fill="#FDFEFE" transform="translate(213.7578125,126.43359375)"/>
<path d="M0 0 C2.98001321 2.31350379 5.70014502 4.85367964 8.41259766 7.47314453 C10.21270306 9.20459012 12.03263175 10.91359811 13.85546875 12.62109375 C16.7644352 15.34727664 19.6679349 18.07906681 22.56640625 20.81640625 C26.72312195 24.74103488 30.89055645 28.65406929 35.0625 32.5625 C35.71814941 33.17689941 36.37379883 33.79129883 37.04931641 34.42431641 C38.37153092 35.66330325 39.69379641 36.90223568 41.01611328 38.14111328 C44.34475112 41.26002154 47.67231906 44.38007087 51 47.5 C52.33332826 48.75000541 53.66666159 50.00000541 55 51.25 C75 70 75 70 95 88.75 C95.9909668 89.6788501 95.9909668 89.6788501 97.00195312 90.62646484 C98.32926389 91.87106196 99.6560905 93.11617563 100.98242188 94.36181641 C104.40402283 97.57398309 107.83470167 100.77553871 111.28125 103.9609375 C129.87097446 121.17743616 129.87097446 121.17743616 133 129 C133 168.93 133 208.86 133 250 C36.64 250 -59.72 250 -159 250 C-159 125.86907449 -159 125.86907449 -152.83691406 118.36694336 C-152.07088867 117.61550049 -151.30486328 116.86405762 -150.515625 116.08984375 C-149.66226563 115.24486328 -148.80890625 114.39988281 -147.9296875 113.52929688 C-147.04539062 112.67400391 -146.16109375 111.81871094 -145.25 110.9375 C-143.94675781 109.64875977 -143.94675781 109.64875977 -142.6171875 108.33398438 C-138.13380881 103.92802139 -133.55790037 99.68590751 -128.79589844 95.58422852 C-126.06954362 93.17920997 -123.5365429 90.60202431 -121 88 C-117.17281596 84.12019218 -113.27923377 80.4373487 -109.125 76.90625 C-106.30606044 74.37749539 -103.66061424 71.69353754 -101 69 C-97.77601913 65.73617385 -94.56482153 62.53169859 -91.0625 59.5625 C-87.34042332 56.3999004 -83.9313366 52.97029586 -80.5 49.5 C-76.49087142 45.44535194 -72.44135501 41.56021851 -68.08984375 37.87109375 C-64.72503925 34.85849309 -61.59454812 31.61427958 -58.42163086 28.40209961 C-55.11452769 25.06993867 -51.70667575 21.94711881 -48.125 18.91015625 C-45.29646737 16.36759658 -42.66285952 13.65148906 -40 10.9375 C-29.34555418 0.15673002 -15.15688668 -9.31800618 0 0 Z M-21.375 23.0625 C-24.07302896 25.95324532 -26.71827171 28.71076765 -29.75 31.25 C-33.52732438 34.48338967 -37.00682176 37.96700779 -40.5 41.5 C-44.5091202 45.55465898 -48.55864512 49.43978159 -52.91015625 53.12890625 C-56.27496075 56.14150691 -59.40545188 59.38572042 -62.57836914 62.59790039 C-65.88599763 65.93059062 -69.29656607 69.05208116 -72.875 72.09375 C-75.69393932 74.62250439 -78.33938837 77.30646001 -81 80 C-84.82988013 83.87727963 -88.72051302 87.56243606 -92.875 91.09375 C-95.69393932 93.62250439 -98.33938837 96.30646001 -101 99 C-104.82988013 102.87727963 -108.72051302 106.56243606 -112.875 110.09375 C-116.24161697 113.11380345 -119.37904352 116.35869891 -122.55615234 119.57568359 C-126.0655366 123.1119511 -129.67504086 126.47123719 -133.4765625 129.6953125 C-134.69958301 130.74271981 -135.86139532 131.86139532 -137 133 C-137 164.35 -137 195.7 -137 228 C-55.16 228 26.68 228 111 228 C111 196.65 111 165.3 111 133 C106.05 128.38 101.1 123.76 96 119 C93.18519818 116.35651325 90.37170068 113.71190128 87.5625 111.0625 C80.04897518 103.98409141 72.52134513 96.92088548 64.98828125 89.86328125 C62.98119833 87.98238036 60.9748589 86.10068968 58.96875 84.21875 C52.4863936 78.13805963 45.99957592 72.06228514 39.5 66 C34.34771522 61.1943604 29.20198723 56.3818245 24.0625 51.5625 C23.07213745 50.63401245 23.07213745 50.63401245 22.06176758 49.68676758 C17.95190785 45.83286797 13.84570402 41.97510819 9.74145508 38.11523438 C7.73409018 36.23122709 5.7209716 34.35353588 3.70703125 32.4765625 C1.36358258 30.29030738 -0.95047563 28.08028122 -3.23828125 25.8359375 C-3.73094482 25.36260986 -4.2236084 24.88928223 -4.73120117 24.40161133 C-6.01975997 23.1636108 -7.29563028 21.9124399 -8.5703125 20.66015625 C-13.84444296 17.05644975 -17.39821595 18.63481665 -21.375 23.0625 Z " fill="#0576D9" transform="translate(228,108)"/>
<path d="M0 0 C11.68773521 9.73977934 18.22292853 23.2139771 20.3828125 38.12109375 C20.66125089 41.75174454 20.71766148 45.35576438 20.6953125 48.99609375 C20.68967285 49.96498535 20.6840332 50.93387695 20.67822266 51.93212891 C20.5573177 59.06073284 19.78827688 65.37494177 17.3828125 72.12109375 C17.17881836 72.73114258 16.97482422 73.34119141 16.76464844 73.96972656 C9.16362259 96.66216327 -3.95132268 115.05767342 -25.6171875 126.12109375 C-40.78532667 133.52018603 -58.10805837 134.1784197 -74.16796875 129.37890625 C-84.22464922 125.7115777 -90.93950894 120.05283337 -96.5546875 110.99609375 C-99.74768953 102.38287223 -97.8061718 91.78126288 -95.6171875 83.12109375 C-95.4109375 82.21230469 -95.2046875 81.30351562 -94.9921875 80.3671875 C-93.70675626 74.88219396 -92.13350271 69.57427653 -90.3046875 64.24609375 C-86.92484691 54.34213663 -84.27261081 44.23937969 -81.6171875 34.12109375 C-81.41416016 33.36876465 -81.21113281 32.61643555 -81.00195312 31.84130859 C-80.09185324 28.38501937 -79.36424841 25.20338826 -79.4921875 21.62109375 C-79.5334375 20.46609375 -79.5746875 19.31109375 -79.6171875 18.12109375 C-82.81287276 17.772882 -84.21185954 17.82925762 -86.86328125 19.73828125 C-91.55679216 24.57401977 -95.24409725 29.2945402 -98.42578125 35.25 C-99.01552734 36.17619141 -99.01552734 36.17619141 -99.6171875 37.12109375 C-100.2771875 37.12109375 -100.9371875 37.12109375 -101.6171875 37.12109375 C-102.52465568 24.31570946 -98.93926654 13.90378258 -90.6171875 4.12109375 C-68.01151361 -19.49952877 -25.49969128 -18.30649478 0 0 Z " fill="#141414" transform="translate(583.6171875,182.87890625)"/>
<path d="M0 0 C3.52327799 2.03376209 6.20172347 4.63278919 8.97265625 7.5859375 C10.78958096 9.47873379 12.69271817 11.17185294 14.6875 12.875 C17.49576347 15.29367779 20.14970593 17.79649683 22.75 20.4375 C25.33009215 23.05790609 27.96103607 25.54073412 30.75 27.9375 C34.26141648 30.95512353 37.50307402 34.17109081 40.75 37.46875 C42.68891002 39.37736455 44.68699551 41.16460552 46.75 42.9375 C49.53896393 45.33426588 52.16990785 47.81709391 54.75 50.4375 C57.30990134 53.03732183 59.9177954 55.50018398 62.6875 57.875 C66.49824063 61.14880653 70.00078165 64.67113971 73.52734375 68.24609375 C76.1770144 70.85851068 78.96172803 73.27052621 81.78515625 75.69140625 C84.56561832 78.16231389 87.14118218 80.8191694 89.75 83.46875 C91.68891002 85.37736455 93.68699551 87.16460552 95.75 88.9375 C98.53896393 91.33426588 101.16990785 93.81709391 103.75 96.4375 C106.30990134 99.03732183 108.9177954 101.50018398 111.6875 103.875 C115.49824063 107.14880653 119.00078165 110.67113971 122.52734375 114.24609375 C125.1770144 116.85851068 127.96172803 119.27052621 130.78515625 121.69140625 C133.56561832 124.16231389 136.14118218 126.8191694 138.75 129.46875 C140.68891002 131.37736455 142.68699551 133.16460552 144.75 134.9375 C148.25721235 137.95151061 151.49539065 141.16317184 154.73828125 144.45703125 C157.36248914 147.04047474 160.13241558 149.42948329 162.91796875 151.8359375 C165.32886071 153.94354028 167.58822096 156.07305418 169.75 158.4375 C169.75 159.0975 169.75 159.7575 169.75 160.4375 C167.80463642 162.08218915 165.85679682 163.61214705 163.8125 165.125 C162.6222256 166.02190955 161.43212242 166.91904636 160.2421875 167.81640625 C159.65147461 168.25871582 159.06076172 168.70102539 158.45214844 169.15673828 C156.09293625 170.93189994 153.76418812 172.74500721 151.4375 174.5625 C150.71949219 175.12195313 150.00148438 175.68140625 149.26171875 176.2578125 C148.76285156 176.64710938 148.26398438 177.03640625 147.75 177.4375 C142.05134492 173.52166439 137.22914266 169.0754607 132.4375 164.09765625 C129.67424804 161.36251877 126.79326998 158.83162634 123.85595703 156.28735352 C120.38391516 153.23754349 117.04038416 150.05454742 113.6875 146.875 C112.18775066 145.45806798 110.6877459 144.04140626 109.1875 142.625 C108.44242187 141.92117187 107.69734375 141.21734375 106.9296875 140.4921875 C103.69324784 137.44135012 100.44158253 134.40699638 97.1875 131.375 C92.65657655 127.15264702 88.13354007 122.92216313 83.61938477 118.68188477 C77.40782419 112.84781013 71.16392659 107.0549662 64.87109375 101.30859375 C60.45815199 97.26327747 56.10489518 93.15398642 51.7421875 89.0546875 C47.59665805 85.16183794 43.43484858 81.28803082 39.25 77.4375 C34.43404074 73.00484109 29.64771383 68.54168476 24.875 64.0625 C24.20879639 63.43754639 23.54259277 62.81259277 22.85620117 62.16870117 C20.12232476 59.60365177 17.38885008 57.03818307 14.65771484 54.47021484 C12.62752126 52.56182336 10.59518524 50.65573687 8.5625 48.75 C7.95100098 48.1739502 7.33950195 47.59790039 6.70947266 47.00439453 C0.40967197 40.53002983 0.40967197 40.53002983 -7.75 37.5 C-8.4821875 37.40847656 -9.214375 37.31695312 -9.96875 37.22265625 C-19.203474 38.09236485 -27.97668216 50.10956475 -34.10546875 56.32421875 C-36.07298359 58.26306307 -38.08948522 60.07970479 -40.1875 61.875 C-43.3603592 64.59369248 -46.31338382 67.46501675 -49.25 70.4375 C-52.77106323 74.00150302 -56.38186008 77.34054168 -60.1875 80.59375 C-62.63924689 82.78546313 -64.93885573 85.09817104 -67.25 87.4375 C-70.14591958 90.36868191 -73.05242571 93.20153174 -76.1875 95.875 C-79.53925073 98.73922335 -82.65556756 101.80083716 -85.75 104.9375 C-89.43994588 108.67780338 -93.22503698 112.2198935 -97.22265625 115.62890625 C-100.56743054 118.61278004 -103.66335157 121.84369732 -106.8125 125.03125 C-109.50283906 127.68709753 -112.31573525 130.13885432 -115.1875 132.59375 C-117.63924689 134.78546313 -119.93885573 137.09817104 -122.25 139.4375 C-125.77106323 143.00150302 -129.38186008 146.34054168 -133.1875 149.59375 C-136.54035849 152.59100228 -139.64893756 155.82909634 -142.80859375 159.02734375 C-145.51216433 161.69630863 -148.33659156 164.16578788 -151.22265625 166.6328125 C-155.06923304 170.05693288 -158.64755425 173.7600033 -162.25 177.4375 C-166.3789971 175.68113556 -169.65031868 172.90253188 -173.125 170.125 C-173.72441406 169.65126953 -174.32382813 169.17753906 -174.94140625 168.68945312 C-178.75964498 165.66219444 -182.51799953 162.57032608 -186.25 159.4375 C-182.18577484 154.4106952 -177.81111571 150.16898692 -172.96484375 145.8984375 C-170.08978258 143.29226694 -167.34666207 140.57618634 -164.625 137.8125 C-161.60356431 134.75725804 -158.58488602 131.78457693 -155.3125 129 C-151.77320874 125.98397151 -148.51505855 122.74301776 -145.25 119.4375 C-142.02602207 116.17367068 -138.81482126 112.96919836 -135.3125 110 C-131.59042332 106.8374004 -128.1813366 103.40779586 -124.75 99.9375 C-120.74087142 95.88285194 -116.69135501 91.99771851 -112.33984375 88.30859375 C-108.97503925 85.29599309 -105.84454812 82.05177958 -102.67163086 78.83959961 C-99.36400237 75.50690938 -95.95343393 72.38541884 -92.375 69.34375 C-89.55606044 66.81499539 -86.91061424 64.13103754 -84.25 61.4375 C-81.02601913 58.17367385 -77.81482153 54.96919859 -74.3125 52 C-70.59042332 48.8374004 -67.1813366 45.40779586 -63.75 41.9375 C-59.74087142 37.88285194 -55.69135501 33.99771851 -51.33984375 30.30859375 C-47.97811889 27.29875037 -44.85032425 24.05773807 -41.68041992 20.84838867 C-38.28766506 17.42981293 -34.79485584 14.20679706 -31.1171875 11.09375 C-29.0070348 9.22198275 -27.07827092 7.22185009 -25.125 5.1875 C-18.09882861 -1.82508112 -9.41905672 -4.25140303 0 0 Z " fill="#0375D9" transform="translate(223.25,45.5625)"/>
<path d="M0 0 C11.55 0 23.1 0 35 0 C35 17.82 35 35.64 35 54 C52.82 54 70.64 54 89 54 C89 65.55 89 77.1 89 89 C70.85 89 52.7 89 34 89 C34 106.82 34 124.64 34 143 C22.45 143 10.9 143 -1 143 C-1 125.18 -1 107.36 -1 89 C-18.82 89 -36.64 89 -55 89 C-55 77.45 -55 65.9 -55 54 C-36.85 54 -18.7 54 0 54 C0 36.18 0 18.36 0 0 Z " fill="#0577D9" transform="translate(198,181)"/>
<path d="M0 0 C4.34593651 3.83607803 6.88109636 8.20772796 8.09765625 13.8515625 C8.11183594 13.11550781 8.12601563 12.37945312 8.140625 11.62109375 C8.53159626 3.62203304 8.53159626 3.62203304 11.34765625 -0.2109375 C17.88348217 -4.81572395 24.30323921 -4.92881942 32.09765625 -4.1484375 C36.46050999 -2.77532229 40.16459578 -0.71255038 43.09765625 2.8515625 C43.09765625 8.76175615 41.13057796 13.8248784 39.18652344 19.35839844 C37.17062781 25.26765471 35.71854232 31.26357289 34.34765625 37.3515625 C34.1372168 38.28307129 33.92677734 39.21458008 33.70996094 40.17431641 C32.06093154 47.65972236 30.94903755 54.84834174 30.91015625 62.5390625 C30.89597656 63.82167969 30.88179687 65.10429687 30.8671875 66.42578125 C31.07873027 69.57023904 31.42552221 71.24091845 33.09765625 73.8515625 C35.07765625 73.8515625 37.05765625 73.8515625 39.09765625 73.8515625 C39.59265625 72.3665625 39.59265625 72.3665625 40.09765625 70.8515625 C40.75765625 70.8515625 41.41765625 70.8515625 42.09765625 70.8515625 C42.69154279 75.60265479 42.32694838 78.06677693 39.47265625 81.9765625 C33.74980164 88.88667599 27.16559206 94.06936765 18.09765625 95.23828125 C11.57283561 95.474806 7.21354203 95.0082197 2.09765625 90.8515625 C-2.02037916 85.43309486 -2.63243006 80.55891762 -2.90234375 73.8515625 C-3.53849609 74.93824219 -3.53849609 74.93824219 -4.1875 76.046875 C-8.9002281 83.81510814 -14.55876927 91.68257426 -23.75390625 94.3984375 C-29.84662962 95.68344825 -35.15338143 95.78126134 -40.58984375 92.4765625 C-48.57400444 86.48490917 -53.57637511 77.70521756 -55.45776367 67.98071289 C-57.39763204 54.32706498 -57.72440877 38.56116849 -51.90234375 25.8515625 C-51.52851562 24.96984375 -51.1546875 24.088125 -50.76953125 23.1796875 C-45.39957033 11.44401131 -36.92280168 2.23343987 -25.02734375 -3.1484375 C-16.21487393 -5.87524681 -7.62525363 -5.23228786 0 0 Z " fill="#131313" transform="translate(1265.90234375,219.1484375)"/>
<path d="M0 0 C1.38445312 -0.01546875 1.38445312 -0.01546875 2.796875 -0.03125 C12.89740187 0.09936026 22.07801763 3.06735261 29.51171875 10.10546875 C35.19784012 16.34230405 36.21469398 22.14228245 36.0703125 30.46484375 C35.60394946 34.79292023 34.14772423 37.85768096 31.75 41.4375 C31.21375 42.30375 30.6775 43.17 30.125 44.0625 C23.11453859 51.07296141 14.64096961 54.51235475 4.8125 54.5625 C3.12478525 54.53069918 1.43712082 54.49241533 -0.25 54.4375 C0.67946058 48.72795643 0.67946058 48.72795643 1.28125 46.25 C1.90017334 42.53645997 1.85607987 38.87622127 1.8125 35.125 C1.80798828 34.38443359 1.80347656 33.64386719 1.79882812 32.88085938 C1.78712175 31.06637101 1.76918898 29.25192466 1.75 27.4375 C-3.53958655 25.1175059 -8.57427423 24.19237585 -14.17578125 26.08984375 C-24.26447714 31.3019638 -29.46516572 42.61426757 -33.11254883 52.8605957 C-35.41317291 60.31941097 -35.67039654 67.36076526 -35.5625 75.125 C-35.56572266 76.29611328 -35.56894531 77.46722656 -35.57226562 78.67382812 C-35.51699769 87.58201452 -34.44002983 94.61907575 -30.4375 102.6875 C-29.95667969 103.68265625 -29.47585938 104.6778125 -28.98046875 105.703125 C-26.374771 109.82048035 -22.81733745 112.70744794 -18.25 114.4375 C-8.61901894 115.82864171 -1.23033001 113.86579787 6.75 108.4375 C14.52154658 102.44647677 20.93303806 95.32461605 26.75 87.4375 C28.235 87.9325 28.235 87.9325 29.75 88.4375 C28.95385918 104.09493609 20.95443082 118.69325116 9.75 129.4375 C-0.34947078 137.91627868 -11.78350022 142.6114971 -24.875 142.6875 C-26.17244141 142.7184375 -26.17244141 142.7184375 -27.49609375 142.75 C-38.58832842 142.81652015 -47.25918812 138.96748019 -55.3828125 131.46875 C-69.55786646 116.59302797 -71.67939457 97.97803467 -71.46484375 78.390625 C-70.89534292 56.21900268 -63.01621134 36.2304791 -47.25 20.4375 C-46.56292969 19.73882812 -45.87585937 19.04015625 -45.16796875 18.3203125 C-32.51589053 6.25506537 -17.36956892 0.16168482 0 0 Z " fill="#131313" transform="translate(1169.25,171.5625)"/>
<path d="M0 0 C4.80062476 3.15041 7.24074641 7.00859311 8.5625 12.5625 C9.0635868 15.75692833 9.46527415 18.9280899 9.75 22.1484375 C10.19988281 21.53097656 10.64976562 20.91351563 11.11328125 20.27734375 C18.4604429 10.6038263 27.32263489 2.12550016 39.125 -1.6015625 C52.16176471 -2.84315914 52.16176471 -2.84315914 57.75 1.1484375 C64.18432817 9.14787252 63.75024075 19.33144046 62.75 29.1484375 C61.67168047 35.51362902 60.32688278 41.81962199 58.88452148 48.11108398 C55.55057973 61.76045213 55.55057973 61.76045213 57.75 75.1484375 C61.69727588 75.32785913 64.3480513 75.24194439 67.75 73.1484375 C68.38030566 78.19088278 67.12387724 81.07143211 64.359375 85.125 C58.68022789 92.2652869 52.5206302 96.22411938 43.4609375 97.4609375 C37.77496014 97.77356856 33.415831 96.40711312 28.75 93.1484375 C23.56799767 87.83006668 22.38169749 82.66442443 22.4375 75.3984375 C22.44269653 74.2861377 22.44269653 74.2861377 22.44799805 73.15136719 C22.64992386 62.57090077 24.93649586 52.39064494 27.4375 42.1484375 C28.67886053 36.97501875 29.10395568 32.45777276 28.75 27.1484375 C27.56094598 25.75416879 27.56094598 25.75416879 24.1875 25.7109375 C18.76971443 25.76929785 15.57657115 28.5695685 11.75 32.1484375 C4.93844269 39.33841466 2.52390612 47.34369662 2.58203125 57.02734375 C2.72848928 59.74873832 3.07975596 62.08224987 3.75 64.7109375 C5.9763529 73.64861507 5.4828924 82.10542404 0.75 90.1484375 C-2.42105442 93.76038719 -6.55740181 96.72040895 -11.36328125 97.484375 C-16.98259477 97.58418519 -20.84322331 96.73100409 -25.25 93.1484375 C-31.59718467 86.85176093 -32.74318608 81.42010311 -32.83984375 72.76147461 C-32.64619249 63.39791732 -30.22035393 54.53870363 -27.74047852 45.55297852 C-25.73205266 38.10559846 -24.1901505 30.89167842 -25.25 23.1484375 C-25.91 22.4884375 -26.57 21.8284375 -27.25 21.1484375 C-31.38830989 21.44940549 -33.76847024 21.82741766 -37.25 24.1484375 C-37.58 23.8184375 -37.91 23.4884375 -38.25 23.1484375 C-37.7774044 15.429376 -35.16002123 9.60376228 -29.4375 4.3359375 C-21.07643247 -2.38359934 -10.09365303 -4.58420075 0 0 Z " fill="#141414" transform="translate(881.25,216.8515625)"/>
<path d="M0 0 C5.2363013 4.48191891 8.09434051 9.00619562 8.94140625 15.91015625 C9.17916124 23.57200256 8.63708283 29.78567368 4.5 36.3125 C3.84644531 37.35664063 3.84644531 37.35664063 3.1796875 38.421875 C-0.29587384 43.47378383 -4.32717869 47.05660875 -9.5 50.3125 C-10.12003906 50.72757812 -10.74007813 51.14265625 -11.37890625 51.5703125 C-18.78946928 55.71790747 -28.27515661 55.46900145 -36.5 54.3125 C-40.47504834 53.06922189 -43.95860784 51.49661851 -47.5 49.3125 C-45.47146986 59.10715743 -45.47146986 59.10715743 -39.625 66.92578125 C-32.90396796 71.18643549 -26.59111968 71.18681083 -18.9296875 69.87109375 C-9.69279206 67.56910884 -2.5550893 61.43928807 4.5 55.3125 C5.21280481 63.64439622 4.01720144 69.2642125 -0.5 76.3125 C-0.88800781 76.93898438 -1.27601562 77.56546875 -1.67578125 78.2109375 C-8.24717876 87.2033762 -20.3254095 92.09533015 -30.9296875 93.91015625 C-43.90988855 95.37291414 -56.56880313 95.05626279 -67.4375 87 C-68.82086088 85.80378483 -70.17765407 84.57583658 -71.5 83.3125 C-72.34498047 82.51005859 -72.34498047 82.51005859 -73.20703125 81.69140625 C-82.23636148 72.15917662 -83.84440934 60.54668262 -83.7109375 47.93359375 C-82.84231584 33.02225522 -75.82521765 19.89148644 -65.5 9.3125 C-48.0719793 -6.187109 -20.87947024 -14.01070993 0 0 Z " fill="#151515" transform="translate(1490.5,220.6875)"/>
<path d="M0 0 C5.11217462 3.71119754 8.08157553 8.36972659 10.0625 14.3125 C10.95338995 24.60913193 9.0246344 33.6615803 2.99609375 42.140625 C-3.09340086 48.98054218 -11.90582411 55.17167546 -21.2421875 55.74609375 C-22.76545813 55.76867904 -24.28918602 55.76944314 -25.8125 55.75 C-26.60462891 55.74605225 -27.39675781 55.74210449 -28.21289062 55.73803711 C-34.15918151 55.59182687 -38.85868951 54.53858115 -43.9375 51.3125 C-44.9275 50.8175 -44.9275 50.8175 -45.9375 50.3125 C-44.83333401 57.4318986 -43.01108075 63.95723047 -37.25390625 68.69921875 C-31.53400658 72.08834849 -25.39610462 72.23173209 -18.9375 71.3125 C-10.71365202 68.92066302 -3.26579689 64.88539352 2.65234375 58.6328125 C4.0625 57.3125 4.0625 57.3125 6.0625 57.3125 C6.86916686 65.70183531 4.03311918 73.15727809 -0.84765625 79.984375 C-6.19063013 85.93654777 -13.56591596 89.47727537 -20.9375 92.3125 C-22.02224609 92.76302734 -22.02224609 92.76302734 -23.12890625 93.22265625 C-35.13902529 97.59181969 -49.39707027 96.49109496 -60.9375 91.3125 C-70.84082292 86.06137097 -77.229966 77.81717968 -80.9375 67.3125 C-84.01486963 55.57047971 -83.08456297 41.21216276 -77.9375 30.3125 C-77.56367187 29.5184375 -77.18984375 28.724375 -76.8046875 27.90625 C-69.89333303 14.54124666 -58.85810152 3.26759674 -44.55078125 -1.9140625 C-41.36001222 -2.90738141 -38.16819478 -3.83386114 -34.9375 -4.6875 C-34.28523437 -4.88214844 -33.63296875 -5.07679688 -32.9609375 -5.27734375 C-22.01041759 -7.49704373 -9.5659212 -5.7932229 0 0 Z " fill="#151515" transform="translate(1040.9375,219.6875)"/>
<path d="M0 0 C4.58540043 4.02620526 7.09914979 7.95505824 7.77099609 14.18261719 C7.86815838 16.35514536 7.89112415 18.51284309 7.875 20.6875 C7.86762817 21.87013428 7.86762817 21.87013428 7.86010742 23.07666016 C7.62241079 35.19553141 4.91736869 46.34849046 -0.4375 57.25 C-0.89511719 58.21292969 -1.35273437 59.17585938 -1.82421875 60.16796875 C-12.01624117 79.60212737 -30.09920972 90.74804658 -50.4375 97.25 C-59.31587023 99.50027817 -69.24855271 99.49070485 -77.4375 95.25 C-82.59845808 91.91958769 -85.55750798 87.9166334 -87 81.90625 C-89.37012624 67.51619783 -85.40028961 53.28041328 -81.47021484 39.55932617 C-79.81726302 33.58715711 -79.04828999 28.45224977 -79.4375 22.25 C-79.7675 21.92 -80.0975 21.59 -80.4375 21.25 C-86.30642751 21.64372451 -86.30642751 21.64372451 -91.4375 24.25 C-92.31308619 18.70462079 -90.1692155 15.17727249 -87.27734375 10.65234375 C-83.00862174 5.07853475 -77.13002701 1.2917879 -70.4375 -0.75 C-63.74011814 -1.4643874 -58.29834687 -1.14929118 -52.4375 2.25 C-49.5625 4.875 -49.5625 4.875 -47.4375 7.25 C-46.9425 7.745 -46.9425 7.745 -46.4375 8.25 C-45.22515264 21.86406466 -48.33643478 34.82415039 -51.59375 47.953125 C-55.44007188 61.72891007 -55.44007188 61.72891007 -52.4375 75.25 C-48.59099316 75.55772055 -45.94526047 75.46761163 -42.375 73.9375 C-33.26636253 65.60406571 -29.68135197 52.14676384 -28.4375 40.25 C-28.41594239 37.51033126 -28.43515561 34.80542131 -28.5234375 32.0703125 C-28.5438208 31.36235031 -28.5642041 30.65438812 -28.58520508 29.92497253 C-28.67594897 26.99586283 -28.77561181 24.06904452 -28.93115234 21.14257812 C-29.55488758 8.75503288 -29.55488758 8.75503288 -26.74853516 4.97509766 C-24.69644953 3.41373842 -22.78408804 2.30463385 -20.4375 1.25 C-19.32375 0.63125 -18.21 0.0125 -17.0625 -0.625 C-10.98008962 -2.5126446 -5.75689209 -2.93078143 0 0 Z " fill="#141414" transform="translate(765.4375,215.75)"/>
<path d="M0 0 C4.45273263 2.76875254 7.25372596 7.04233773 8.68359375 12.046875 C9.11220598 14.71324178 9.41008714 17.35739331 9.68359375 20.046875 C10.50150391 18.88671875 10.50150391 18.88671875 11.3359375 17.703125 C24.42644574 -0.37744023 24.42644574 -0.37744023 33.68359375 -1.953125 C37.74663178 -2.45294317 40.8187276 -2.43360619 44.49609375 -0.390625 C49.16902782 4.81635868 50.20045542 9.67247326 49.97265625 16.49609375 C49.08265138 24.34978542 45.75356646 32.57587977 39.74609375 37.859375 C33.53752633 42.29406601 33.53752633 42.29406601 28.87109375 41.671875 C28.14921875 41.465625 27.42734375 41.259375 26.68359375 41.046875 C26.45671875 39.95375 26.22984375 38.860625 25.99609375 37.734375 C24.9955489 34.03577446 24.9955489 34.03577446 22.55859375 32.046875 C18.71686532 30.71062163 15.49957261 30.78520247 11.68359375 32.046875 C7.69337412 35.15037916 5.64007165 38.43003056 3.68359375 43.046875 C3.28619692 46.43236954 3.28619692 46.43236954 3.43359375 49.921875 C3.4490625 51.07429688 3.46453125 52.22671875 3.48046875 53.4140625 C3.6606612 56.63673518 4.0241889 59.78690891 4.44775391 62.98486328 C5.37315916 71.07593241 6.5244541 81.31827465 2.03125 88.46875 C-1.3266244 92.40086958 -5.32774508 96.64939313 -10.63671875 97.35546875 C-16.86105984 97.64154571 -20.92578712 97.1413256 -25.65625 92.90625 C-31.89125505 85.92304434 -32.16524477 77.7900368 -31.85546875 68.76953125 C-31.29771253 60.76215409 -29.37803879 52.95587102 -27.45166016 45.18237305 C-25.59557055 37.49199348 -24.38508492 29.97368953 -25.31640625 22.046875 C-27.12717106 19.84624247 -27.12717106 19.84624247 -29.62890625 19.671875 C-33.12681724 20.1599556 -34.74952948 21.70001623 -37.31640625 24.046875 C-37.64640625 23.716875 -37.97640625 23.386875 -38.31640625 23.046875 C-38.02808788 16.1272341 -35.34635963 10.37260955 -30.67578125 5.24609375 C-22.16335496 -2.48027516 -10.71367957 -4.72203756 0 0 Z " fill="#141414" transform="translate(1356.31640625,216.953125)"/>
<path d="M0 0 C4.35940007 2.51916152 6.96102547 5.5080764 8.5625 10.3125 C9.11303536 20.13743867 8.84191539 28.95830039 5.5625 38.3125 C5.07191551 39.78699609 4.58385459 41.26233306 4.09765625 42.73828125 C3.06817309 45.85678631 2.02229248 48.969007 0.96484375 52.078125 C-1.76736026 59.89406291 -1.76736026 59.89406291 -2.625 68.0625 C-2.61533203 69.16851562 -2.61533203 69.16851562 -2.60546875 70.296875 C-2.50033218 72.51792276 -2.50033218 72.51792276 -1.4375 75.3125 C2.03191546 74.85427532 5.23645049 74.42118317 8.5625 73.3125 C8.30763726 80.32122546 6.36189677 85.12033823 1.5625 90.3125 C-6.29592772 96.06491723 -12.65036965 98.54940114 -22.4375 97.3125 C-27.72964969 95.20031655 -31.31521772 92.19162397 -33.9375 87.125 C-39.51623774 74.03046281 -35.46391557 61.85030064 -30.4375 49.3125 C-29.48771759 47.24604835 -28.53047716 45.18299156 -27.5625 43.125 C-24.59065177 36.34308994 -24.76340255 29.60238239 -25.4375 22.3125 C-26.53451184 20.99598662 -26.53451184 20.99598662 -29.25 21.125 C-32.30448544 21.30467561 -33.87545344 21.73585596 -36.4375 23.3125 C-36.99793657 17.70813429 -35.56159707 13.86224136 -32.4375 9.3125 C-24.14149735 0.08015393 -12.04892316 -5.48696315 0 0 Z " fill="#141414" transform="translate(651.4375,216.6875)"/>
<path d="M0 0 C3.60131388 3.26552704 4.8023641 6.51243694 5.4375 11.29296875 C5.90691355 25.21401428 1.52667006 37.98497612 -2.98095703 50.97387695 C-4.80805577 56.24627687 -6.14411182 61.05907005 -6.125 66.6875 C-6.12757813 67.45449219 -6.13015625 68.22148437 -6.1328125 69.01171875 C-6.12368933 71.07479336 -6.12368933 71.07479336 -5 73 C-1.53058454 72.54177532 1.67395049 72.10868317 5 71 C4.28318774 78.16812261 2.14083327 83.85916673 -3 89 C-9.43738675 93.64065038 -15.21003283 95.97763733 -23.203125 95.51171875 C-28.58290955 94.52742856 -32.17487683 92.30421801 -35.5625 88.02734375 C-40.58426208 80.39483604 -40.79235027 73.02198826 -40 64 C-38.41587094 57.48595205 -36.05142515 51.32445028 -33.33203125 45.2109375 C-29.55014102 36.6020003 -27.88385701 29.52253636 -29 20 C-30.09798661 18.68810584 -30.09798661 18.68810584 -32.8125 18.75 C-36.34614205 19.0271484 -37.34494431 19.81145084 -40 22 C-39.96840168 14.29000958 -38.46469076 9.5120041 -33 4 C-23.58497059 -4.5764438 -11.04352443 -7.45491301 0 0 Z " fill="#141414" transform="translate(825,219)"/>
<path d="M0 0 C1.72706863 0.12880091 3.453523 0.2658511 5.1796875 0.40625 C6.62190674 0.51936523 6.62190674 0.51936523 8.09326172 0.63476562 C17.65176305 1.83580023 24.09304116 6.55209537 30 14 C38.03511847 26.50342825 38.52573648 41.37450209 36.3125 55.75 C33.21321341 69.95506355 27.08281843 82.43300541 15.52734375 91.44140625 C9.79004032 94.97955783 3.63298345 96.11655221 -3 95 C-5.82424288 92.80977082 -7.41508603 91.16982793 -9 88 C-10.49658158 72.21958916 -6.38955651 57.93466207 -2.42138672 42.79199219 C1.12459772 28.79972929 0.28309456 14.32022928 0 0 Z " fill="#FCFCFC" transform="translate(531,194)"/>
<path d="M0 0 C3.3 0 6.6 0 10 0 C10 18.15 10 36.3 10 55 C27.82 55 45.64 55 64 55 C64 58.3 64 61.6 64 65 C46.18 65 28.36 65 10 65 C10 82.82 10 100.64 10 119 C6.7 119 3.4 119 0 119 C0 101.18 0 83.36 0 65 C-17.82 65 -35.64 65 -54 65 C-54 61.7 -54 58.4 -54 55 C-36.18 55 -18.36 55 0 55 C0 36.85 0 18.7 0 0 Z " fill="#F9FBFE" transform="translate(210,193)"/>
<path d="M0 0 C2.8125 2.125 2.8125 2.125 5 5 C6.2065625 6.2375 6.2065625 6.2375 7.4375 7.5 C10.66165159 14.72209956 7.66790767 22.58691817 5.05981445 29.70996094 C1.48446727 38.87200709 -2.7334674 48.24597258 -11 54 C-14.125 54.4375 -14.125 54.4375 -17 54 C-21.15628672 50.67909597 -22.03740768 46.03560202 -23 41 C-24.19915444 27.29766195 -21.6292972 15.33513279 -13.66015625 4.11328125 C-9.83159355 -0.43645116 -5.77851172 -1.42322603 0 0 Z " fill="#FAFAFA" transform="translate(1263,235)"/>
<path d="M0 0 C4.49335792 2.67873261 7.89728454 6.23206909 10.25 10.9375 C11.0010617 17.94740922 9.38225813 23.18397314 5.25 28.9375 C-0.29526651 33.66284383 -5.89679946 35.3787876 -13.11328125 35.2734375 C-18.2595075 34.61777016 -21.94846279 32.23267876 -25.1328125 28.17578125 C-28.11546545 23.03435501 -28.70227385 17.76895016 -27.75 11.9375 C-25.31207856 6.8666234 -21.30244677 3.18019411 -16.75 -0.0625 C-11.1667827 -1.92357243 -5.62045437 -1.59246207 0 0 Z " fill="#161616" transform="translate(658.75,174.0625)"/>
<path d="M0 0 C4.11919428 2.45567351 7.13329976 4.54702989 9.25 8.9375 C10.21058256 14.8256511 10.15263685 19.99335909 7.625 25.4375 C2.17879091 31.17035167 -2.44165112 34.90386678 -10.5625 35.375 C-17.47508637 35.22047124 -21.55064405 32.19183985 -26.25 27.375 C-28.49655631 22.2266418 -28.48872552 17.46651778 -27.75 11.9375 C-25.39423557 6.84904883 -21.2909789 3.17202557 -16.75 -0.0625 C-11.1667827 -1.92357243 -5.62045437 -1.59246207 0 0 Z " fill="#151515" transform="translate(828.75,174.0625)"/>
<path d="M0 0 C2.87029869 1.79393668 4.49131638 2.98263276 6 6 C6.77669036 13.45622741 4.14077442 19.75430976 0.0625 25.9375 C-3.56236008 29.56236008 -6.22753633 31.17267077 -11.375 31.3125 C-15.53679624 31.18004752 -19.0688824 30.3382528 -23 29 C-23.54882979 20.58460995 -21.39325033 12.59175041 -16 6 C-11.32433058 0.70172186 -7.14400721 -1.60539488 0 0 Z " fill="#F8F8F8" transform="translate(1466,231)"/>
<path d="M0 0 C2.9375 1.875 2.9375 1.875 5 5 C6.35721377 11.83369037 4.79027882 18.22643574 1 24 C-2.47044799 27.75439373 -5.79676421 30.74206154 -11.0859375 31.16796875 C-15.51705096 31.20577689 -18.96625532 31.08193274 -23 29 C-23.67553105 20.18056691 -22.04579265 12.74828981 -16.6875 5.5625 C-11.83729139 0.93788249 -6.67926519 -0.98952077 0 0 Z " fill="#F8F8F8" transform="translate(1018,231)"/>
</svg>
